<svg width="88" height="22" viewBox="0 0 88 22" fill="none" xmlns="http://www.w3.org/2000/svg">
<path d="M8.62 12.004C7.94 11.868 7.384 11.72 6.952 11.56C6.528 11.392 6.192 11.168 5.944 10.888C5.704 10.6 5.584 10.232 5.584 9.784C5.584 9.32 5.704 8.912 5.944 8.56C6.192 8.208 6.536 7.936 6.976 7.744C7.424 7.552 7.94 7.456 8.524 7.456C9.084 7.456 9.596 7.576 10.06 7.816C10.532 8.048 10.904 8.376 11.176 8.8C11.448 9.224 11.584 9.708 11.584 10.252H11.14C11.14 9.78 11.024 9.364 10.792 9.004C10.56 8.644 10.244 8.368 9.844 8.176C9.444 7.976 9 7.876 8.512 7.876C8.08 7.876 7.676 7.944 7.3 8.08C6.924 8.216 6.616 8.424 6.376 8.704C6.144 8.984 6.028 9.336 6.028 9.76C6.028 10.144 6.14 10.452 6.364 10.684C6.588 10.908 6.88 11.08 7.24 11.2C7.6 11.32 8.104 11.448 8.752 11.584C9.408 11.72 9.916 11.852 10.276 11.98C10.644 12.1 10.952 12.304 11.2 12.592C11.456 12.88 11.584 13.284 11.584 13.804C11.584 14.324 11.444 14.764 11.164 15.124C10.892 15.476 10.528 15.74 10.072 15.916C9.616 16.092 9.12 16.18 8.584 16.18C7.92 16.18 7.336 16.056 6.832 15.808C6.328 15.56 5.94 15.212 5.668 14.764C5.404 14.308 5.272 13.788 5.272 13.204H5.716C5.716 13.716 5.828 14.164 6.052 14.548C6.284 14.932 6.616 15.232 7.048 15.448C7.48 15.656 7.992 15.76 8.584 15.76C9.32 15.76 9.928 15.584 10.408 15.232C10.896 14.88 11.14 14.4 11.14 13.792C11.14 13.376 11.036 13.056 10.828 12.832C10.62 12.608 10.356 12.448 10.036 12.352C9.724 12.248 9.252 12.132 8.62 12.004ZM14.6468 7.648V13.3L20.3108 7.648H20.9348L17.4428 11.128L20.9228 16H20.3948L17.1308 11.44L14.6468 13.924V16H14.2028V7.648H14.6468ZM28.9176 7.648V8.092H26.4216V15.556H28.9176V16H23.5056V15.556H25.9896V8.092H23.5056V7.648H28.9176ZM31.8244 16V7.648H32.2924L38.1244 13.312V7.648H38.5684V16H38.1244V13.936L32.2684 8.224V16H31.8244ZM49.9861 12.808C49.9861 13.336 50.1181 13.824 50.3821 14.272C50.6541 14.72 51.0141 15.076 51.4621 15.34C51.9181 15.604 52.4101 15.736 52.9381 15.736C53.4821 15.736 53.9741 15.628 54.4141 15.412C54.8541 15.196 55.1981 14.896 55.4461 14.512C55.7021 14.128 55.8341 13.696 55.8421 13.216H56.2741C56.2741 13.768 56.1261 14.272 55.8301 14.728C55.5421 15.176 55.1421 15.532 54.6301 15.796C54.1261 16.052 53.5621 16.18 52.9381 16.18C52.3301 16.18 51.7661 16.028 51.2461 15.724C50.7261 15.42 50.3141 15.012 50.0101 14.5C49.7061 13.98 49.5541 13.416 49.5541 12.808V10.84C49.5541 10.232 49.7021 9.672 49.9981 9.16C50.3021 8.64 50.7101 8.228 51.2221 7.924C51.7421 7.62 52.3061 7.468 52.9141 7.468C53.5301 7.468 54.0901 7.6 54.5941 7.864C55.1061 8.12 55.5101 8.476 55.8061 8.932C56.1021 9.38 56.2501 9.88 56.2501 10.432H55.8181C55.8101 9.952 55.6781 9.52 55.4221 9.136C55.1661 8.752 54.8181 8.452 54.3781 8.236C53.9461 8.02 53.4581 7.912 52.9141 7.912C52.3861 7.912 51.8981 8.044 51.4501 8.308C51.0021 8.572 50.6461 8.928 50.3821 9.376C50.1181 9.824 49.9861 10.312 49.9861 10.84V12.808ZM61.5089 7.648H61.9769L65.4089 16H64.9289L63.8009 13.24H59.6849L58.5449 16H58.0769L61.5089 7.648ZM59.8649 12.808H63.6209L61.7369 8.224L59.8649 12.808ZM72.4317 7.924C72.9117 8.148 73.2877 8.48 73.5597 8.92C73.8397 9.36 73.9797 9.848 73.9797 10.384C73.9797 11.008 73.7877 11.568 73.4037 12.064C73.0277 12.552 72.5437 12.876 71.9517 13.036L74.0757 16H73.5477L71.4957 13.12L71.1117 13.132H68.0997V16H67.6557V7.648H70.8357C71.1877 7.648 71.4877 7.672 71.7357 7.72C71.9917 7.76 72.2237 7.828 72.4317 7.924ZM71.2317 12.688C71.6477 12.688 72.0317 12.584 72.3837 12.376C72.7357 12.168 73.0157 11.888 73.2237 11.536C73.4317 11.184 73.5357 10.8 73.5357 10.384C73.5357 9.92 73.4117 9.5 73.1637 9.124C72.9237 8.748 72.5877 8.468 72.1557 8.284C71.8437 8.156 71.4037 8.092 70.8357 8.092H68.0997V12.688H71.2317ZM76.6225 7.648H82.5025V8.092H77.0665V11.476H81.7945V11.92H77.0665V15.556H82.5025V16H76.6225V7.648Z" fill="black"/>
</svg>
